<?xml version="1.0" standalone="no"?>
<!DOCTYPE svg PUBLIC "-//W3C//DTD SVG 20010904//EN"
 "http://www.w3.org/TR/2001/REC-SVG-20010904/DTD/svg10.dtd">
<svg version="1.0" xmlns="http://www.w3.org/2000/svg"
 width="500.000000pt" height="500.000000pt" viewBox="0 0 500.000000 500.000000"
 preserveAspectRatio="xMidYMid meet">

<g transform="translate(0.000000,500.000000) scale(0.100000,-0.100000)"
fill="#000000" stroke="none">
<path d="M2330 4150 c-658 -76 -1198 -511 -1404 -1131 -136 -408 -105 -852 85
-1244 234 -483 691 -823 1222 -910 206 -33 398 -29 613 15 260 54 544 198 756
384 375 332 588 851 548 1340 -31 382 -159 696 -401 982 -177 209 -455 396
-721 485 -204 68 -501 102 -698 79z m425 -36 c670 -105 1207 -620 1345 -1289
118 -575 -79 -1157 -525 -1554 -320 -284 -785 -439 -1201 -400 -515 47 -932
289 -1226 709 -242 346 -339 824 -253 1247 124 610 596 1104 1203 1258 217 54
435 64 657 29z"/>
<path d="M2534 3938 c-2 -3 4 -9 15 -13 16 -5 19 -12 14 -40 -3 -19 -2 -42 1
-52 11 -26 26 3 26 50 0 25 4 37 14 37 8 0 17 4 20 9 3 5 -15 11 -40 13 -25 2
-48 0 -50 -4z"/>
<path d="M2165 3913 c-33 -8 -36 -17 -24 -71 13 -54 20 -58 67 -46 34 9 27 27
-8 21 -23 -5 -30 -3 -30 9 0 9 9 18 20 21 11 3 17 9 14 15 -3 5 -14 6 -25 3
-13 -4 -19 -2 -19 8 0 8 9 17 20 20 11 3 20 10 20 16 0 11 -2 12 -35 4z"/>
<path d="M2780 3868 c-6 -23 -13 -48 -15 -55 -2 -7 0 -15 6 -19 6 -3 13 4 16
15 7 27 27 22 31 -7 2 -12 9 -22 16 -22 8 0 12 9 9 23 -3 14 2 29 11 36 30 25
15 53 -36 66 -25 6 -27 4 -38 -37z m60 -4 c0 -8 -9 -14 -20 -14 -22 0 -23 1
-14 24 7 18 34 10 34 -10z"/>
<path d="M1908 3823 c-23 -6 -22 -10 3 -71 21 -51 46 -62 35 -16 -7 28 -3 29
30 8 28 -19 48 -9 22 10 -9 6 -18 25 -20 41 -2 24 -8 30 -28 32 -14 0 -33 -1
-42 -4z m52 -27 c0 -15 -24 -28 -34 -19 -13 14 -5 33 14 33 11 0 20 -6 20 -14z"/>
<path d="M3011 3776 c-28 -28 -39 -46 -31 -51 6 -4 17 -2 24 4 17 15 47 3 44
-17 -2 -8 2 -17 8 -19 13 -4 30 100 19 117 -10 17 -19 12 -64 -34z m40 -19
c-17 -17 -24 -1 -9 22 11 18 14 19 16 5 2 -9 -1 -21 -7 -27z"/>
<path d="M1720 3708 c0 -7 9 -24 20 -38 44 -56 10 -79 -36 -24 -39 46 -55 40
-24 -10 24 -39 62 -55 85 -36 21 17 19 47 -6 86 -21 34 -39 44 -39 22z"/>
<path d="M3220 3663 l-33 -46 22 -19 c31 -24 53 -23 79 5 35 37 26 72 -24 100
-6 4 -26 -14 -44 -40z m64 -27 c-9 -22 -37 -37 -53 -26 -11 6 -8 14 10 39 19
26 25 29 36 18 8 -7 11 -21 7 -31z"/>
<path d="M2270 3610 c-216 -46 -396 -140 -554 -290 -105 -100 -234 -280 -224
-312 2 -6 19 15 37 48 136 239 380 433 648 514 82 24 247 50 323 50 135 0 307
-39 455 -102 203 -88 416 -285 528 -488 10 -18 20 -30 24 -27 10 11 -87 162
-158 245 -153 181 -409 326 -648 367 -116 21 -324 18 -431 -5z"/>
<path d="M1502 3538 c-29 -29 -7 -84 39 -101 20 -7 59 19 59 39 0 19 -10 18
-25 -2 -15 -21 -52 -10 -61 18 -4 14 -1 25 10 33 9 7 16 15 16 19 0 10 -25 7
-38 -6z"/>
<path d="M3411 3501 c-31 -26 -40 -40 -32 -46 12 -7 91 59 91 77 0 15 -15 7
-59 -31z"/>
<path d="M3537 3361 c-21 -16 -38 -33 -37 -38 3 -11 21 -5 41 13 28 25 31 15
8 -26 -32 -57 -15 -67 43 -23 27 19 45 39 42 44 -3 6 -21 -2 -40 -16 -39 -30
-41 -28 -14 17 38 63 19 76 -43 29z"/>
<path d="M1337 3331 l-17 -29 48 -31 47 -31 17 23 c24 31 23 59 -1 30 -12 -14
-22 -18 -31 -13 -11 7 -11 11 0 24 7 9 10 20 6 24 -4 4 -14 -1 -21 -12 -18
-24 -39 -12 -25 14 22 41 1 42 -23 1z"/>
<path d="M1230 3135 c-6 -7 -10 -24 -8 -37 4 -28 39 -36 58 -13 14 16 40 21
40 6 0 -5 -7 -16 -15 -25 -10 -10 -12 -17 -4 -21 12 -8 38 23 39 47 0 10 -9
22 -19 27 -14 8 -25 6 -45 -10 -31 -24 -46 -18 -28 11 14 23 -1 36 -18 15z"/>
<path d="M3647 3132 c-22 -25 -21 -55 2 -76 15 -14 24 -15 40 -6 23 12 25 18
12 39 -7 11 -11 10 -19 -4 -5 -10 -14 -15 -21 -11 -15 10 -14 22 5 40 24 25
53 20 66 -11 11 -27 12 -28 16 -5 2 13 -2 30 -8 38 -17 20 -74 18 -93 -4z"/>
<path d="M1151 2711 c-15 -53 -50 -86 -99 -96 l-37 -8 40 -9 c51 -11 82 -41
97 -92 l11 -41 7 30 c14 65 56 104 112 106 15 0 6 7 -28 20 -53 20 -71 42 -83
100 l-7 33 -13 -43z"/>
<path d="M3795 2725 c-23 -69 -34 -83 -87 -104 -39 -14 -46 -20 -28 -21 14 0
40 -9 58 -20 30 -18 39 -31 57 -85 6 -17 9 -13 19 20 13 45 62 85 105 85 20 1
13 6 -29 23 -51 20 -56 25 -72 72 -13 40 -18 46 -23 30z"/>
<path d="M2414 2641 c-94 -57 -100 -210 -11 -273 46 -33 125 -36 175 -8 105
59 108 213 6 280 -39 27 -128 27 -170 1z"/>
<path d="M1192 2178 c-39 -9 -42 -11 -36 -36 10 -43 30 -59 54 -44 11 6 29 12
39 12 26 0 34 14 26 50 -7 33 -13 34 -83 18z m68 -33 c0 -8 -7 -15 -15 -15 -8
0 -15 7 -15 15 0 8 7 15 15 15 8 0 15 -7 15 -15z m-52 -12 c-4 -22 -22 -20
-26 1 -2 10 3 16 13 16 10 0 15 -7 13 -17z"/>
<path d="M3700 2175 c0 -8 15 -22 33 -32 l32 -17 -42 -8 c-60 -13 -54 -33 12
-45 56 -10 90 1 38 13 -48 10 -49 12 -15 19 39 9 41 19 5 40 l-28 16 37 -6
c56 -9 55 12 -2 24 -66 14 -70 14 -70 -4z"/>
<path d="M1450 2076 c0 -23 73 -159 126 -233 108 -154 294 -305 464 -379 252
-109 563 -124 818 -38 277 93 526 311 661 582 18 35 30 69 28 75 -2 7 -23 -26
-47 -73 -270 -539 -898 -769 -1449 -531 -236 101 -448 305 -557 536 -37 76
-44 86 -44 61z"/>
<path d="M1278 1950 c-45 -24 -52 -34 -44 -64 8 -33 28 -38 81 -20 49 17 64
42 18 29 -78 -22 -112 4 -44 33 22 9 41 23 41 30 0 16 -8 15 -52 -8z"/>
<path d="M3634 1932 c-18 -12 -36 -54 -27 -62 4 -4 29 -17 56 -28 36 -16 47
-18 47 -8 0 8 -7 16 -15 20 -24 9 -17 24 12 28 14 2 28 9 31 17 3 9 -2 11 -18
6 -16 -5 -26 -1 -36 14 -16 22 -31 26 -50 13z m36 -35 c0 -19 -10 -27 -26 -20
-21 8 -17 33 6 33 11 0 20 -6 20 -13z"/>
<path d="M1399 1728 c-13 -18 -29 -37 -36 -41 -7 -4 -13 -15 -13 -23 0 -13 4
-13 30 1 16 8 43 15 60 15 21 0 30 4 27 13 -2 7 -16 11 -32 9 -28 -4 -28 -4
-12 22 25 38 2 41 -24 4z"/>
<path d="M3507 1702 c-22 -25 -21 -48 3 -72 26 -26 76 -26 90 -1 15 29 12 49
-10 71 -25 25 -62 26 -83 2z m64 -20 c14 -12 20 -25 16 -35 -8 -22 -29 -21
-58 2 -20 16 -21 21 -10 35 17 20 24 20 52 -2z"/>
<path d="M1516 1541 c-38 -39 -39 -40 -22 -65 25 -39 48 -35 24 3 -9 16 -6 23
23 49 24 22 31 34 24 41 -8 8 -22 -1 -49 -28z"/>
<path d="M3357 1522 l-27 -28 38 -37 c36 -35 62 -47 62 -28 0 5 -7 14 -15 21
-14 12 -14 15 0 30 20 22 7 35 -16 14 -24 -21 -36 1 -14 26 27 30 0 32 -28 2z"/>
<path d="M1685 1395 c-43 -42 -28 -95 25 -95 53 0 85 77 44 107 -26 19 -42 16
-69 -12z m61 -19 c8 -21 -14 -56 -36 -56 -28 0 -34 18 -16 45 18 28 44 33 52
11z"/>
<path d="M3187 1385 c-21 -15 -35 -31 -31 -36 4 -7 10 -6 18 1 10 8 20 0 41
-30 18 -26 32 -37 38 -31 6 6 -1 23 -19 46 -21 28 -25 38 -15 45 8 4 12 13 10
19 -3 7 -18 1 -42 -14z"/>
<path d="M1905 1265 c-33 -32 -32 -70 1 -91 24 -16 27 -16 52 3 36 27 42 75
10 97 -30 21 -35 20 -63 -9z m61 -19 c8 -21 -14 -56 -35 -56 -23 0 -31 18 -20
48 9 25 46 30 55 8z"/>
<path d="M2992 1272 c-18 -12 -5 -122 15 -122 9 0 13 6 9 15 -7 19 27 38 42
23 5 -5 15 -9 21 -7 6 2 -8 26 -31 52 -29 32 -47 45 -56 39z m33 -62 c-9 -14
-25 5 -25 30 0 12 3 12 16 -2 9 -9 13 -21 9 -28z"/>
<path d="M2132 1160 c-7 -28 -12 -56 -12 -61 0 -17 19 -9 25 10 4 13 12 17 25
14 39 -10 67 40 37 65 -6 6 -24 13 -38 17 -24 6 -26 3 -37 -45z m64 9 c3 -6 0
-15 -7 -20 -22 -14 -29 -11 -29 11 0 21 24 27 36 9z"/>
<path d="M2760 1191 c0 -5 5 -33 12 -61 10 -45 14 -51 32 -46 12 3 27 6 34 6
6 0 12 5 12 10 0 6 -11 10 -24 10 -20 0 -25 7 -35 45 -6 25 -16 45 -21 45 -6
0 -10 -4 -10 -9z"/>
<path d="M2543 1163 c-20 -7 -17 -113 2 -113 8 0 15 9 15 20 0 13 7 20 20 20
10 0 24 9 30 19 13 25 13 27 -6 45 -15 16 -37 19 -61 9z m45 -36 c2 -10 -3
-17 -12 -17 -18 0 -29 16 -21 31 9 14 29 6 33 -14z"/>
</g>
</svg>
